<svg xmlns="http://www.w3.org/2000/svg" width="28.362" height="23.035" viewBox="0 0 28.362 23.035">
  <path id="Icon_awesome-twitter" data-name="Icon awesome-twitter" d="M25.447,9.122c.018.252.018.5.018.756,0,7.684-5.849,16.539-16.539,16.539A16.426,16.426,0,0,1,0,23.806a12.025,12.025,0,0,0,1.4.072A11.641,11.641,0,0,0,8.62,21.395a5.823,5.823,0,0,1-5.435-4.031,7.331,7.331,0,0,0,1.1.09,6.148,6.148,0,0,0,1.53-.2,5.814,5.814,0,0,1-4.661-5.7v-.072a5.854,5.854,0,0,0,2.627.738,5.821,5.821,0,0,1-1.8-7.774,16.523,16.523,0,0,0,11.985,6.083,6.562,6.562,0,0,1-.144-1.332,5.818,5.818,0,0,1,10.06-3.977,11.444,11.444,0,0,0,3.689-1.4,5.8,5.8,0,0,1-2.555,3.2,11.653,11.653,0,0,0,3.347-.9,12.5,12.5,0,0,1-2.915,3.005Z" transform="translate(0 -3.381)" fill="#fff"/>
</svg>
