<svg xmlns="http://www.w3.org/2000/svg" width="27.639" height="27.633" viewBox="0 0 27.639 27.633">
  <path id="Icon_awesome-instagram" data-name="Icon awesome-instagram" d="M13.817,8.969A7.085,7.085,0,1,0,20.9,16.054,7.074,7.074,0,0,0,13.817,8.969Zm0,11.691a4.606,4.606,0,1,1,4.606-4.606,4.614,4.614,0,0,1-4.606,4.606ZM22.844,8.68a1.652,1.652,0,1,1-1.652-1.652A1.649,1.649,0,0,1,22.844,8.68Zm4.692,1.677A8.178,8.178,0,0,0,25.3,4.567a8.232,8.232,0,0,0-5.79-2.232c-2.281-.129-9.12-.129-11.4,0a8.22,8.22,0,0,0-5.79,2.226,8.2,8.2,0,0,0-2.232,5.79c-.129,2.281-.129,9.12,0,11.4a8.178,8.178,0,0,0,2.232,5.79,8.242,8.242,0,0,0,5.79,2.232c2.281.129,9.12.129,11.4,0a8.178,8.178,0,0,0,5.79-2.232,8.232,8.232,0,0,0,2.232-5.79c.129-2.281.129-9.113,0-11.395ZM24.589,24.2a4.663,4.663,0,0,1-2.627,2.627c-1.819.721-6.135.555-8.145.555s-6.333.16-8.145-.555A4.663,4.663,0,0,1,3.045,24.2c-.721-1.819-.555-6.135-.555-8.145s-.16-6.333.555-8.145A4.663,4.663,0,0,1,5.672,5.282c1.819-.721,6.135-.555,8.145-.555s6.333-.16,8.145.555a4.663,4.663,0,0,1,2.627,2.627c.721,1.819.555,6.135.555,8.145S25.311,22.387,24.589,24.2Z" transform="translate(0.005 -2.238)" fill="#fff"/>
</svg>
